<?xml version="1.0" encoding="utf-8"?>
<!-- Generator: Adobe Illustrator 16.0.0, SVG Export Plug-In . SVG Version: 6.00 Build 0)  -->
<!DOCTYPE svg PUBLIC "-//W3C//DTD SVG 1.1//EN" "http://www.w3.org/Graphics/SVG/1.1/DTD/svg11.dtd">
<svg version="1.1" id="Layer_1" xmlns="http://www.w3.org/2000/svg" xmlns:xlink="http://www.w3.org/1999/xlink" x="0px" y="0px"
	 width="654px" height="575px" viewBox="0 0 654 575" enable-background="new 0 0 654 575" xml:space="preserve">
<path fill="none" d="z"/>
<g>
	<path pointer-events="none" fill="none" stroke="#000000" stroke-miterlimit="10" d="M378,53h233c6.666,0,10,3.334,10,10v210
		c0,6.667-3.334,10-10,10h-18"/>
	<path pointer-events="none" fill="none" stroke="#000000" stroke-miterlimit="10" d="M601,279v8 M593,287l8-4l-8-4"/>
	<path pointer-events="none" fill="#E0E0E0" stroke="#000000" stroke-miterlimit="10" d="M50,168v-26h110v26"/>
	<path pointer-events="none" fill="#FFFFFF" stroke="#000000" stroke-miterlimit="10" d="M50,168v84h110v-84"/>
	<path pointer-events="none" fill="none" stroke="#000000" stroke-miterlimit="10" d="M50,168h110"/>
	<g>
		<text transform="matrix(1 0 0 1 74.1414 160.4998)" font-family="'Helvetica'" font-size="14">dateTable</text>
	</g>
	<path pointer-events="none" fill="none" stroke="#000000" stroke-miterlimit="10" d="M160,198H50"/>
	<g>
		<defs>
			<rect id="SVGID_1_" x="85" y="169" width="70" height="28"/>
		</defs>
		<clipPath id="SVGID_2_">
			<use xlink:href="#SVGID_1_"  overflow="visible"/>
		</clipPath>
		<g clip-path="url(#SVGID_2_)">
			<text transform="matrix(1 0 0 1 86.4998 186.4998)" font-family="'Helvetica-Bold'" font-size="12">Date_ID</text>
		</g>
	</g>
	<path pointer-events="none" fill="none" stroke="#000000" stroke-miterlimit="10" d="M80,168v30"/>
	<g>
		<defs>
			<rect id="SVGID_3_" x="55" y="169" width="20" height="28"/>
		</defs>
		<clipPath id="SVGID_4_">
			<use xlink:href="#SVGID_3_"  overflow="visible"/>
		</clipPath>
		<g clip-path="url(#SVGID_4_)">
			<text transform="matrix(1 0 0 1 56.4998 186.4998)" font-family="'Helvetica'" font-size="12">PK</text>
		</g>
	</g>
	<path pointer-events="none" fill="none" stroke="#000000" stroke-miterlimit="10" d="M50,224"/>
	<g>
		<defs>
			<rect id="SVGID_5_" x="85" y="204" width="70" height="24"/>
		</defs>
		<clipPath id="SVGID_6_">
			<use xlink:href="#SVGID_5_"  overflow="visible"/>
		</clipPath>
		<g clip-path="url(#SVGID_6_)">
			<text transform="matrix(1 0 0 1 86.4998 216.4998)" font-family="'Helvetica'" font-size="12">Site_ID</text>
		</g>
	</g>
	<path pointer-events="none" fill="none" stroke="#000000" stroke-miterlimit="10" d="M80,198v26"/>
	<g>
		<defs>
			<rect id="SVGID_7_" x="55" y="204" width="20" height="24"/>
		</defs>
		<clipPath id="SVGID_8_">
			<use xlink:href="#SVGID_7_"  overflow="visible"/>
		</clipPath>
		<g clip-path="url(#SVGID_8_)">
			<text transform="matrix(1 0 0 1 56.4998 216.4998)" font-family="'Helvetica'" font-size="12">FK</text>
		</g>
	</g>
	<path pointer-events="none" fill="none" stroke="#000000" stroke-miterlimit="10" d="M50,250"/>
	<g>
		<defs>
			<rect id="SVGID_9_" x="85" y="230" width="70" height="24"/>
		</defs>
		<clipPath id="SVGID_10_">
			<use xlink:href="#SVGID_9_"  overflow="visible"/>
		</clipPath>
		<g clip-path="url(#SVGID_10_)">
			<text transform="matrix(1 0 0 1 86.4998 242.4998)" font-family="'Helvetica'" font-size="12">Phase_ID</text>
		</g>
	</g>
	<path pointer-events="none" fill="none" stroke="#000000" stroke-miterlimit="10" d="M80,224v26"/>
	<g>
		<defs>
			<rect id="SVGID_11_" x="55" y="230" width="20" height="24"/>
		</defs>
		<clipPath id="SVGID_12_">
			<use xlink:href="#SVGID_11_"  overflow="visible"/>
		</clipPath>
		<g clip-path="url(#SVGID_12_)">
			<text transform="matrix(1 0 0 1 56.4998 242.4998)" font-family="'Helvetica'" font-size="12">FK</text>
		</g>
	</g>
	<path pointer-events="none" fill="none" stroke="#000000" stroke-miterlimit="10" d="M50,252"/>
	<path pointer-events="none" fill="none" stroke="#000000" stroke-miterlimit="10" d="M80,250v2"/>
	<path pointer-events="none" fill="#E0E0E0" stroke="#000000" stroke-miterlimit="10" d="M268,38V12h110v26"/>
	<path pointer-events="none" fill="#FFFFFF" stroke="#000000" stroke-miterlimit="10" d="M268,38v30h110V38"/>
	<path pointer-events="none" fill="none" stroke="#000000" stroke-miterlimit="10" d="M268,38h110"/>
	<g>
		<text transform="matrix(1 0 0 1 294.8723 30.4998)" font-family="'Helvetica'" font-size="14">siteTable</text>
	</g>
	<path pointer-events="none" fill="none" stroke="#000000" stroke-miterlimit="10" d="M378,68H268"/>
	<g>
		<defs>
			<rect id="SVGID_13_" x="303" y="39" width="70" height="28"/>
		</defs>
		<clipPath id="SVGID_14_">
			<use xlink:href="#SVGID_13_"  overflow="visible"/>
		</clipPath>
		<g clip-path="url(#SVGID_14_)">
			<text transform="matrix(1 0 0 1 304.4998 56.4998)" font-family="'Helvetica-Bold'" font-size="12">Site_ID</text>
		</g>
	</g>
	<path pointer-events="none" fill="none" stroke="#000000" stroke-miterlimit="10" d="M294.59,38v30"/>
	<g>
		<defs>
			<rect id="SVGID_15_" x="273" y="39" width="17" height="28"/>
		</defs>
		<clipPath id="SVGID_16_">
			<use xlink:href="#SVGID_15_"  overflow="visible"/>
		</clipPath>
		<g clip-path="url(#SVGID_16_)">
			<text transform="matrix(1 0 0 1 274.4998 56.4998)" font-family="'Helvetica'" font-size="12">PK</text>
		</g>
	</g>
	<path pointer-events="none" fill="none" stroke="#000000" stroke-miterlimit="10" d="M536.5,214v-92c0-6.666-3.334-10-10-10H115
		c-6.667,0-10,3.334-10,10v20"/>
	<path pointer-events="none" fill="none" stroke="#000000" stroke-miterlimit="10" d="M101,134h8 M109,142l-4-8l-4,8"/>
	<path pointer-events="none" fill="#E0E0E0" stroke="#000000" stroke-miterlimit="10" d="M255,258v-26h123v26"/>
	<path pointer-events="none" fill="#FFFFFF" stroke="#000000" stroke-miterlimit="10" d="M255,258v114h123V258"/>
	<path pointer-events="none" fill="none" stroke="#000000" stroke-miterlimit="10" d="M255,258h123"/>
	<g>
		<text transform="matrix(1 0 0 1 282.1482 250.4998)" font-family="'Helvetica'" font-size="14">cultureLink</text>
	</g>
	<path pointer-events="none" fill="none" stroke="#000000" stroke-miterlimit="10" d="M378,288H255"/>
	<g>
		<defs>
			<rect id="SVGID_17_" x="290" y="259" width="83" height="28"/>
		</defs>
		<clipPath id="SVGID_18_">
			<use xlink:href="#SVGID_17_"  overflow="visible"/>
		</clipPath>
		<g clip-path="url(#SVGID_18_)">
			<text transform="matrix(1 0 0 1 291.4998 276.4998)" font-family="'Helvetica-Bold'" font-size="12">ID</text>
		</g>
	</g>
	<path pointer-events="none" fill="none" stroke="#000000" stroke-miterlimit="10" d="M285,258v30"/>
	<g>
		<defs>
			<rect id="SVGID_19_" x="260" y="259" width="20" height="28"/>
		</defs>
		<clipPath id="SVGID_20_">
			<use xlink:href="#SVGID_19_"  overflow="visible"/>
		</clipPath>
		<g clip-path="url(#SVGID_20_)">
			<text transform="matrix(1 0 0 1 261.4998 276.4998)" font-family="'Helvetica'" font-size="12">PK</text>
		</g>
	</g>
	<path pointer-events="none" fill="none" stroke="#000000" stroke-miterlimit="10" d="M255,314"/>
	<g>
		<defs>
			<rect id="SVGID_21_" x="290" y="294" width="83" height="24"/>
		</defs>
		<clipPath id="SVGID_22_">
			<use xlink:href="#SVGID_21_"  overflow="visible"/>
		</clipPath>
		<g clip-path="url(#SVGID_22_)">
			<text transform="matrix(1 0 0 1 291.4998 306.4998)" font-family="'Helvetica'" font-size="12">Culture_ID</text>
		</g>
	</g>
	<path pointer-events="none" fill="none" stroke="#000000" stroke-miterlimit="10" d="M285,288v26"/>
	<g>
		<defs>
			<rect id="SVGID_23_" x="260" y="294" width="20" height="24"/>
		</defs>
		<clipPath id="SVGID_24_">
			<use xlink:href="#SVGID_23_"  overflow="visible"/>
		</clipPath>
		<g clip-path="url(#SVGID_24_)">
			<text transform="matrix(1 0 0 1 261.4998 306.4998)" font-family="'Helvetica'" font-size="12">FK</text>
		</g>
	</g>
	<path pointer-events="none" fill="none" stroke="#000000" stroke-miterlimit="10" d="M255,340"/>
	<g>
		<defs>
			<rect id="SVGID_25_" x="290" y="320" width="83" height="24"/>
		</defs>
		<clipPath id="SVGID_26_">
			<use xlink:href="#SVGID_25_"  overflow="visible"/>
		</clipPath>
		<g clip-path="url(#SVGID_26_)">
			<text transform="matrix(1 0 0 1 291.4998 332.4998)" font-family="'Helvetica'" font-size="12">Date_ID</text>
		</g>
	</g>
	<path pointer-events="none" fill="none" stroke="#000000" stroke-miterlimit="10" d="M285,314v26"/>
	<g>
		<defs>
			<rect id="SVGID_27_" x="260" y="320" width="20" height="24"/>
		</defs>
		<clipPath id="SVGID_28_">
			<use xlink:href="#SVGID_27_"  overflow="visible"/>
		</clipPath>
		<g clip-path="url(#SVGID_28_)">
			<text transform="matrix(1 0 0 1 261.4998 332.4998)" font-family="'Helvetica'" font-size="12">FK</text>
		</g>
	</g>
	<path pointer-events="none" fill="none" stroke="#000000" stroke-miterlimit="10" d="M255,372"/>
	<g>
		<defs>
			<rect id="SVGID_29_" x="290" y="346" width="83" height="30"/>
		</defs>
		<clipPath id="SVGID_30_">
			<use xlink:href="#SVGID_29_"  overflow="visible"/>
		</clipPath>
		<g clip-path="url(#SVGID_30_)">
			<text transform="matrix(1 0 0 1 291.4998 358.4998)" font-family="'Helvetica'" font-size="12">Phase_ID</text>
		</g>
	</g>
	<path pointer-events="none" fill="none" stroke="#000000" stroke-miterlimit="10" d="M285,340v32"/>
	<g>
		<defs>
			<rect id="SVGID_31_" x="260" y="346" width="20" height="30"/>
		</defs>
		<clipPath id="SVGID_32_">
			<use xlink:href="#SVGID_31_"  overflow="visible"/>
		</clipPath>
		<g clip-path="url(#SVGID_32_)">
			<text transform="matrix(1 0 0 1 261.4998 358.4998)" font-family="'Helvetica'" font-size="12">FK</text>
		</g>
	</g>
	<path pointer-events="none" fill="none" stroke="#000000" stroke-miterlimit="10" d="M160,237h20c6.666,0,10.939,3.197,12.819,9.59
		l29.36,99.82c1.88,6.394,6.153,9.59,12.82,9.59h20"/>
	<path pointer-events="none" fill="none" stroke="#000000" stroke-miterlimit="10" d="M247,360v-8 M255,352l-8,4l8,4"/>
	<path pointer-events="none" fill="none" stroke="#000000" stroke-miterlimit="10" d="M508,214v-22c0-6.666-3.334-10-10-10H327
		c-6.667,0-10,3.334-10,10v40"/>
	<path pointer-events="none" fill="none" stroke="#000000" stroke-miterlimit="10" d="M313,224h8 M321,232l-4-8l-4,8"/>
	<path pointer-events="none" fill="#E0E0E0" stroke="#000000" stroke-miterlimit="10" d="M480,240v-26h113v26"/>
	<path pointer-events="none" fill="#FFFFFF" stroke="#000000" stroke-miterlimit="10" d="M480,240v58h113v-58"/>
	<path pointer-events="none" fill="none" stroke="#000000" stroke-miterlimit="10" d="M480,240h113"/>
	<g>
		<text transform="matrix(1 0 0 1 500.1936 232.4998)" font-family="'Helvetica'" font-size="14">phaseTable</text>
	</g>
	<path pointer-events="none" fill="none" stroke="#000000" stroke-miterlimit="10" d="M593,270H480"/>
	<g>
		<defs>
			<rect id="SVGID_33_" x="515" y="241" width="73" height="28"/>
		</defs>
		<clipPath id="SVGID_34_">
			<use xlink:href="#SVGID_33_"  overflow="visible"/>
		</clipPath>
		<g clip-path="url(#SVGID_34_)">
			<text transform="matrix(1 0 0 1 516.5002 258.4998)" font-family="'Helvetica-Bold'" font-size="12">Phase_ID</text>
		</g>
	</g>
	<path pointer-events="none" fill="none" stroke="#000000" stroke-miterlimit="10" d="M510,240v30"/>
	<g>
		<defs>
			<rect id="SVGID_35_" x="485" y="241" width="20" height="28"/>
		</defs>
		<clipPath id="SVGID_36_">
			<use xlink:href="#SVGID_35_"  overflow="visible"/>
		</clipPath>
		<g clip-path="url(#SVGID_36_)">
			<text transform="matrix(1 0 0 1 486.5002 258.4998)" font-family="'Helvetica'" font-size="12">PK</text>
		</g>
	</g>
	<path pointer-events="none" fill="none" stroke="#000000" stroke-miterlimit="10" d="M480,296"/>
	<g>
		<defs>
			<rect id="SVGID_37_" x="515" y="276" width="73" height="24"/>
		</defs>
		<clipPath id="SVGID_38_">
			<use xlink:href="#SVGID_37_"  overflow="visible"/>
		</clipPath>
		<g clip-path="url(#SVGID_38_)">
			<text transform="matrix(1 0 0 1 516.5002 288.4998)" font-family="'Helvetica'" font-size="12">Site_ID</text>
		</g>
	</g>
	<path pointer-events="none" fill="none" stroke="#000000" stroke-miterlimit="10" d="M510,270v26"/>
	<g>
		<defs>
			<rect id="SVGID_39_" x="485" y="276" width="20" height="24"/>
		</defs>
		<clipPath id="SVGID_40_">
			<use xlink:href="#SVGID_39_"  overflow="visible"/>
		</clipPath>
		<g clip-path="url(#SVGID_40_)">
			<text transform="matrix(1 0 0 1 486.5002 288.4998)" font-family="'Helvetica'" font-size="12">FK</text>
		</g>
	</g>
	<path pointer-events="none" fill="none" stroke="#000000" stroke-miterlimit="10" d="M480,298"/>
	<path pointer-events="none" fill="none" stroke="#000000" stroke-miterlimit="10" d="M510,296v2"/>
	<path pointer-events="none" fill="#E0E0E0" stroke="#000000" stroke-miterlimit="10" d="M500,398v-26h130v26"/>
	<path pointer-events="none" fill="#FFFFFF" stroke="#000000" stroke-miterlimit="10" d="M500,398v30h130v-30"/>
	<path pointer-events="none" fill="none" stroke="#000000" stroke-miterlimit="10" d="M500,398h130"/>
	<g>
		<text transform="matrix(1 0 0 1 526.7551 390.4998)" font-family="'Helvetica'" font-size="14">cultureTable</text>
	</g>
	<path pointer-events="none" fill="none" stroke="#000000" stroke-miterlimit="10" d="M630,428H500"/>
	<g>
		<defs>
			<rect id="SVGID_41_" x="535" y="399" width="90" height="28"/>
		</defs>
		<clipPath id="SVGID_42_">
			<use xlink:href="#SVGID_41_"  overflow="visible"/>
		</clipPath>
		<g clip-path="url(#SVGID_42_)">
			<text transform="matrix(1 0 0 1 536.5002 416.4998)" font-family="'Helvetica-Bold'" font-size="12">Culture_ID</text>
		</g>
	</g>
	<path pointer-events="none" fill="none" stroke="#000000" stroke-miterlimit="10" d="M530,398v30"/>
	<g>
		<defs>
			<rect id="SVGID_43_" x="505" y="399" width="20" height="28"/>
		</defs>
		<clipPath id="SVGID_44_">
			<use xlink:href="#SVGID_43_"  overflow="visible"/>
		</clipPath>
		<g clip-path="url(#SVGID_44_)">
			<text transform="matrix(1 0 0 1 506.5002 416.4998)" font-family="'Helvetica'" font-size="12">PK</text>
		</g>
	</g>
	<path pointer-events="none" fill="none" stroke="#000000" stroke-miterlimit="10" d="M551,371v-19c0-6.666-3.334-10-10-10H378"/>
	<path pointer-events="none" fill="none" stroke="#000000" stroke-miterlimit="10" d="M386,338v8 M378,346l8-4l-8-4"/>
	<rect x="160" y="482" pointer-events="none" fill="#FFFFFF" stroke="#000000" stroke-width="2" width="100" height="50"/>
	<g transform="translate(176.5,487.5)">
		<text transform="matrix(1 0 0 1 0.7102 25.9998)" font-family="'Helvetica'" font-size="14">BibTexFile</text>
	</g>
	<path pointer-events="none" fill="none" stroke="#000000" stroke-miterlimit="10" d="M109,253v30c0,6.667-3.334,10-10,10h-5
		c-3.334,0-5,3.334-5,10v31"/>
	<path pointer-events="none" fill="none" stroke="#000000" stroke-miterlimit="10" d="M85,326h8 M93,334l-4-8l-4,8"/>
	<path pointer-events="none" fill="none" stroke="#000000" stroke-miterlimit="10" d="M160,507H98c-6.667,0-10-3.333-10-10v-53"/>
	<path pointer-events="none" fill="none" stroke="#000000" stroke-miterlimit="10" d="M92,452h-8 M84,444l4,8l4-8"/>
	<path pointer-events="none" fill="#E0E0E0" stroke="#000000" stroke-miterlimit="10" d="M354,478v-26h130v26"/>
	<path pointer-events="none" fill="#FFFFFF" stroke="#000000" stroke-miterlimit="10" d="M354,478v84h130v-84"/>
	<path pointer-events="none" fill="none" stroke="#000000" stroke-miterlimit="10" d="M354,478h130"/>
	<g>
		<text transform="matrix(1 0 0 1 373.7551 470.4998)" font-family="'Helvetica'" font-size="14">cultureRefLink</text>
	</g>
	<path pointer-events="none" fill="none" stroke="#000000" stroke-miterlimit="10" d="M484,508H354"/>
	<g>
		<defs>
			<rect id="SVGID_45_" x="389" y="479" width="90" height="28"/>
		</defs>
		<clipPath id="SVGID_46_">
			<use xlink:href="#SVGID_45_"  overflow="visible"/>
		</clipPath>
		<g clip-path="url(#SVGID_46_)">
			<text transform="matrix(1 0 0 1 390.5002 496.4998)" font-family="'Helvetica-Bold'" font-size="12">ID</text>
		</g>
	</g>
	<path pointer-events="none" fill="none" stroke="#000000" stroke-miterlimit="10" d="M384,478v30"/>
	<g>
		<defs>
			<rect id="SVGID_47_" x="359" y="479" width="20" height="28"/>
		</defs>
		<clipPath id="SVGID_48_">
			<use xlink:href="#SVGID_47_"  overflow="visible"/>
		</clipPath>
		<g clip-path="url(#SVGID_48_)">
			<text transform="matrix(1 0 0 1 360.5002 496.4998)" font-family="'Helvetica'" font-size="12">PK</text>
		</g>
	</g>
	<path pointer-events="none" fill="none" stroke="#000000" stroke-miterlimit="10" d="M354,534"/>
	<g>
		<defs>
			<rect id="SVGID_49_" x="389" y="514" width="90" height="24"/>
		</defs>
		<clipPath id="SVGID_50_">
			<use xlink:href="#SVGID_49_"  overflow="visible"/>
		</clipPath>
		<g clip-path="url(#SVGID_50_)">
			<text transform="matrix(1 0 0 1 390.5002 526.4998)" font-family="'Helvetica'" font-size="12">cultureLinkID</text>
		</g>
	</g>
	<path pointer-events="none" fill="none" stroke="#000000" stroke-miterlimit="10" d="M384,508v26"/>
	<g>
		<defs>
			<rect id="SVGID_51_" x="359" y="514" width="20" height="24"/>
		</defs>
		<clipPath id="SVGID_52_">
			<use xlink:href="#SVGID_51_"  overflow="visible"/>
		</clipPath>
		<g clip-path="url(#SVGID_52_)">
			<text transform="matrix(1 0 0 1 360.5002 526.4998)" font-family="'Helvetica'" font-size="12">FK</text>
		</g>
	</g>
	<path pointer-events="none" fill="none" stroke="#000000" stroke-miterlimit="10" d="M354,560"/>
	<g>
		<defs>
			<rect id="SVGID_53_" x="389" y="540" width="90" height="24"/>
		</defs>
		<clipPath id="SVGID_54_">
			<use xlink:href="#SVGID_53_"  overflow="visible"/>
		</clipPath>
		<g clip-path="url(#SVGID_54_)">
			<text transform="matrix(1 0 0 1 390.5002 552.4998)" font-family="'Helvetica'" font-size="12">BibTexKey</text>
		</g>
	</g>
	<path pointer-events="none" fill="none" stroke="#000000" stroke-miterlimit="10" d="M384,534v26"/>
	<g>
		<defs>
			<rect id="SVGID_55_" x="359" y="540" width="20" height="24"/>
		</defs>
		<clipPath id="SVGID_56_">
			<use xlink:href="#SVGID_55_"  overflow="visible"/>
		</clipPath>
		<g clip-path="url(#SVGID_56_)">
			<text transform="matrix(1 0 0 1 360.5002 552.4998)" font-family="'Helvetica'" font-size="12">EK</text>
		</g>
	</g>
	<path pointer-events="none" fill="none" stroke="#000000" stroke-miterlimit="10" d="M354,562"/>
	<path pointer-events="none" fill="none" stroke="#000000" stroke-miterlimit="10" d="M384,560v2"/>
	<path pointer-events="none" fill="none" stroke="#000000" stroke-miterlimit="10" d="M260,507h30c6.666,0,10,3.334,10,10v20
		c0,6.667,3.333,10,10,10h44"/>
	<path pointer-events="none" fill="none" stroke="#000000" stroke-miterlimit="10" d="M346,551v-8 M354,543l-8,4l8,4"/>
	<path pointer-events="none" fill="none" stroke="#000000" stroke-miterlimit="10" d="M268,53H41c-6.667,0-10,3.334-10,10v138
		c0,6.667,3.166,10,9.5,10H50"/>
	<path pointer-events="none" fill="none" stroke="#000000" stroke-miterlimit="10" d="M42,215v-8 M50,207l-8,4l8,4"/>
	<path pointer-events="none" fill="#E0E0E0" stroke="#000000" stroke-miterlimit="10" d="M26,360v-26h126.56v26"/>
	<path pointer-events="none" fill="#FFFFFF" stroke="#000000" stroke-miterlimit="10" d="M26,360v84h126.56v-84"/>
	<path pointer-events="none" fill="none" stroke="#000000" stroke-miterlimit="10" d="M26,360h126.56"/>
	<g>
		<text transform="matrix(1 0 0 1 51.4211 352.4998)" font-family="'Helvetica'" font-size="14">dateRefLink</text>
	</g>
	<path pointer-events="none" fill="none" stroke="#000000" stroke-miterlimit="10" d="M152.56,390H26"/>
	<g>
		<defs>
			<rect id="SVGID_57_" x="61" y="361" width="87" height="28"/>
		</defs>
		<clipPath id="SVGID_58_">
			<use xlink:href="#SVGID_57_"  overflow="visible"/>
		</clipPath>
		<g clip-path="url(#SVGID_58_)">
			<text transform="matrix(1 0 0 1 62.4998 378.4998)" font-family="'Helvetica-Bold'" font-size="12">ID</text>
		</g>
	</g>
	<path pointer-events="none" fill="none" stroke="#000000" stroke-miterlimit="10" d="M56,360v30"/>
	<g>
		<defs>
			<rect id="SVGID_59_" x="31" y="361" width="20" height="28"/>
		</defs>
		<clipPath id="SVGID_60_">
			<use xlink:href="#SVGID_59_"  overflow="visible"/>
		</clipPath>
		<g clip-path="url(#SVGID_60_)">
			<text transform="matrix(1 0 0 1 32.4998 378.4998)" font-family="'Helvetica'" font-size="12">PK</text>
		</g>
	</g>
	<path pointer-events="none" fill="none" stroke="#000000" stroke-miterlimit="10" d="M26,416"/>
	<g>
		<defs>
			<rect id="SVGID_61_" x="61" y="396" width="87" height="24"/>
		</defs>
		<clipPath id="SVGID_62_">
			<use xlink:href="#SVGID_61_"  overflow="visible"/>
		</clipPath>
		<g clip-path="url(#SVGID_62_)">
			<text transform="matrix(1 0 0 1 62.4998 408.4998)" font-family="'Helvetica'" font-size="12">Date_ID</text>
		</g>
	</g>
	<path pointer-events="none" fill="none" stroke="#000000" stroke-miterlimit="10" d="M56,390v26"/>
	<g>
		<defs>
			<rect id="SVGID_63_" x="31" y="396" width="20" height="24"/>
		</defs>
		<clipPath id="SVGID_64_">
			<use xlink:href="#SVGID_63_"  overflow="visible"/>
		</clipPath>
		<g clip-path="url(#SVGID_64_)">
			<text transform="matrix(1 0 0 1 32.4998 408.4998)" font-family="'Helvetica'" font-size="12">FK</text>
		</g>
	</g>
	<path pointer-events="none" fill="none" stroke="#000000" stroke-miterlimit="10" d="M26,442"/>
	<g>
		<defs>
			<rect id="SVGID_65_" x="61" y="422" width="87" height="24"/>
		</defs>
		<clipPath id="SVGID_66_">
			<use xlink:href="#SVGID_65_"  overflow="visible"/>
		</clipPath>
		<g clip-path="url(#SVGID_66_)">
			<text transform="matrix(1 0 0 1 62.4998 434.4998)" font-family="'Helvetica'" font-size="12">BibTexKey</text>
		</g>
	</g>
	<path pointer-events="none" fill="none" stroke="#000000" stroke-miterlimit="10" d="M56,416v26"/>
	<g>
		<defs>
			<rect id="SVGID_67_" x="31" y="422" width="20" height="24"/>
		</defs>
		<clipPath id="SVGID_68_">
			<use xlink:href="#SVGID_67_"  overflow="visible"/>
		</clipPath>
		<g clip-path="url(#SVGID_68_)">
			<text transform="matrix(1 0 0 1 32.4998 434.4998)" font-family="'Helvetica'" font-size="12">EK</text>
		</g>
	</g>
	<path pointer-events="none" fill="none" stroke="#000000" stroke-miterlimit="10" d="M26,444"/>
	<path pointer-events="none" fill="none" stroke="#000000" stroke-miterlimit="10" d="M48.33,442v2"/>
	<path pointer-events="none" fill="none" stroke="#000000" stroke-miterlimit="10" d="M316.5,372v40c0,6.667,3.333,10,10,10H409
		c6.666,0,10,3.334,10,10v20"/>
	<path pointer-events="none" fill="none" stroke="#000000" stroke-miterlimit="10" d="M415,444h8 M423,452l-4-8l-4,8"/>
</g>
<path fill="none" d="z"/>
</svg>
